<svg xmlns="http://www.w3.org/2000/svg" viewBox="0 0 36 36">
  <path fill="#99AAB5" d="M36 36v-2c0-3.314-2.686-6-6-6H14c-3.313 0-6 2.686-6 6v2h28z"/>
  <path fill="#E1E8ED" d="M29 3.278C29 1.468 23.18 0 16 0S3 1.468 3 3.278v18.496C3 23.532 8.82 25 16 25s13-1.468 13-3.226V3.278z"/>
  <path fill="#99AAB5" d="M16 18c-7.18 0-13-1.468-13-3.278v3.556C3 20.086 8.82 21.5 16 21.5s13-1.414 13-3.222v-3.556C29 16.532 23.18 18 16 18z"/>
  <path fill="#99AAB5" d="M16 11c-7.18 0-13-1.468-13-3.278v3.556C3 13.086 8.82 14.5 16 14.5s13-1.414 13-3.222V7.722C29 9.532 23.18 11 16 11z"/>
  <path fill="#F4ABBA" d="M16 7c-7.18 0-13-1.468-13-3.278S8.82.5 16 .5s13 1.414 13 3.222S23.18 7 16 7z"/>
  <path fill="#DD2E44" d="M16 4c-4.411 0-8-1.119-8-2.5S11.589-1 16-1s8 1.119 8 2.5-3.589 2.5-8 2.5z"/>
  <path fill="#EA596E" d="M18 3.5c0 .829-2 1.5-2 1.5s-2-.671-2-1.5S14.5 2 16 2s2 .671 2 1.5z"/>
</svg>
